<?xml version="1.0" standalone="no"?>
<!DOCTYPE svg PUBLIC "-//W3C//DTD SVG 20010904//EN"
 "http://www.w3.org/TR/2001/REC-SVG-20010904/DTD/svg10.dtd">
<svg version="1.0" xmlns="http://www.w3.org/2000/svg"
 width="400.000000pt" height="400.000000pt" viewBox="0 0 400.000000 400.000000"
 preserveAspectRatio="xMidYMid meet">
<metadata>
Created by potrace 1.11, written by Peter Selinger 2001-2013
</metadata>
<g transform="translate(0.000000,400.000000) scale(0.100000,-0.100000)"
fill="#000000" stroke="none">
<path d="M0 2000 l0 -2000 2000 0 2000 0 0 2000 0 2000 -2000 0 -2000 0 0
-2000z m1580 1299 c0 -6 -12 -73 -26 -149 l-27 -137 -123 -6 c-170 -7 -222
-35 -244 -133 -5 -21 -10 -173 -10 -336 0 -269 -2 -303 -19 -348 -25 -65 -62
-114 -113 -148 l-40 -26 23 -15 c51 -32 107 -101 128 -155 20 -53 21 -77 21
-354 0 -306 5 -357 37 -401 38 -51 83 -64 245 -69 94 -3 148 -9 148 -15 0 -6
-12 -73 -27 -149 l-27 -138 -146 0 c-329 1 -477 71 -552 259 -21 53 -22 73
-28 418 -5 348 -6 363 -26 390 -33 44 -76 63 -153 70 l-71 6 0 152 0 152 71 6
c77 7 120 26 153 70 20 27 21 42 26 390 6 345 7 365 28 418 55 138 155 213
325 244 92 17 427 20 427 4z m1325 -13 c140 -39 233 -114 277 -224 21 -55 22
-73 28 -424 5 -353 6 -368 26 -395 33 -44 76 -63 153 -70 l71 -6 0 -152 0
-152 -71 -6 c-77 -7 -120 -26 -153 -70 -20 -27 -21 -42 -26 -395 -6 -351 -7
-369 -28 -424 -30 -73 -96 -147 -164 -181 -100 -50 -157 -60 -381 -64 l-208
-5 7 38 c3 22 16 89 28 149 l22 110 122 7 c141 8 195 27 227 80 19 31 20 57
25 373 4 265 9 347 20 370 28 60 69 112 110 140 l42 29 -29 20 c-47 34 -89 82
-114 133 -23 47 -24 55 -29 388 -6 387 -6 387 -89 427 -37 18 -67 22 -193 26
l-149 5 5 26 c3 14 15 76 26 136 12 61 23 116 26 124 6 20 337 10 419 -13z
m-405 -801 l0 -175 -485 0 -485 0 0 175 0 175 485 0 485 0 0 -175z m0 -515 l0
-170 -485 0 -485 0 0 170 0 170 485 0 485 0 0 -170z m0 -515 l0 -175 -485 0
-485 0 0 175 0 175 485 0 485 0 0 -175z"/>
</g>
</svg>
